<svg xmlns="http://www.w3.org/2000/svg" width="512" height="512" viewBox="0 0 512 512">
	<rect width="512" height="512" fill="#ffffff"/>
	<g transform="translate(96, 122) scale(5.6)">
		<path d="M 55.97 6.505 C 55.406 6.071 54.711 5.94 54.06 6.114 C 51.932 6.679 49.327 7.374 49.327 7.374 L 49.327 2.204 C 49.327 1.508 48.98 0.9 48.459 0.466 C 47.894 0.031 47.199 -0.099 46.548 0.074 C 39.687 1.899 22.015 6.635 16.587 8.113 C 15.632 8.373 14.98 9.242 14.98 10.242 L 14.98 27.014 L 7.295 29.056 C 7.208 29.099 7.121 29.099 7.034 29.143 C 3.951 30.012 1.476 32.401 0.478 35.443 C 0.174 36.355 0 37.355 0 38.398 C 0 43.698 4.342 48 9.683 48 C 11.637 48 13.461 47.435 14.98 46.436 C 17.586 44.741 19.323 41.787 19.453 38.267 L 19.453 30.229 L 25.315 28.665 C 26.27 28.404 26.921 27.578 26.921 26.579 C 26.921 25.884 26.574 25.276 26.053 24.841 C 25.488 24.407 24.794 24.276 24.142 24.45 L 19.409 25.71 L 19.409 11.763 L 44.985 4.897 L 44.985 8.417 C 44.985 8.417 35.172 11.067 31.437 12.067 C 30.612 12.284 30.004 13.066 30.004 13.935 L 30.004 14.109 C 30.004 14.804 30.352 15.412 30.873 15.847 C 31.437 16.281 32.132 16.412 32.783 16.238 C 37.082 15.108 44.985 12.979 44.985 12.979 L 44.985 22.104 C 43.465 21.104 41.641 20.54 39.687 20.54 C 34.347 20.54 30.004 24.885 30.004 30.229 C 30.004 35.573 34.347 39.918 39.687 39.918 C 41.641 39.918 43.465 39.353 44.985 38.354 C 47.634 36.66 49.37 33.661 49.37 30.272 L 49.37 11.893 C 49.37 11.893 53.235 10.85 55.406 10.285 C 56.231 10.068 56.839 9.286 56.839 8.417 L 56.839 8.243 C 56.839 7.548 56.492 6.94 55.97 6.505 Z M 14.937 38.398 C 14.937 41.265 12.549 43.612 9.64 43.612 C 6.73 43.612 4.342 41.265 4.342 38.398 C 4.342 36.051 5.949 34.053 8.12 33.401 C 8.163 33.401 8.207 33.357 8.207 33.357 L 8.38 33.357 L 14.937 31.576 Z" fill="#25282A"/>
	</g>
</svg>
